<svg width="148" height="148" viewBox="0 0 148 148" fill="none" xmlns="http://www.w3.org/2000/svg">
<circle cx="74" cy="74" r="74" fill="#2F88FF"/>
<path d="M39.5928 38H108.407V109H39.5928V38Z" fill="white" fill-opacity="0.01"/>
<path d="M95.5043 85.3333H58.2299L51.0618 55.75H102.672L95.5043 85.3333Z" fill="#2F88FF"/>
<path d="M43.8936 46.875H48.9113L51.0617 55.75M51.0617 55.75L58.2299 85.3333H95.5043L102.672 55.75H51.0617Z" stroke="white" stroke-width="5" stroke-linecap="round" stroke-linejoin="round"/>
<path d="M58.2298 100.125C60.6052 100.125 62.5307 98.1383 62.5307 95.6875C62.5307 93.2367 60.6052 91.25 58.2298 91.25C55.8545 91.25 53.929 93.2367 53.929 95.6875C53.929 98.1383 55.8545 100.125 58.2298 100.125Z" stroke="white" stroke-width="5" stroke-linecap="round" stroke-linejoin="round"/>
<path d="M95.5043 100.125C97.8796 100.125 99.8052 98.1383 99.8052 95.6875C99.8052 93.2367 97.8796 91.25 95.5043 91.25C93.1289 91.25 91.2034 93.2367 91.2034 95.6875C91.2034 98.1383 93.1289 100.125 95.5043 100.125Z" stroke="white" stroke-width="5" stroke-linecap="round" stroke-linejoin="round"/>
</svg>
